<svg xmlns="http://www.w3.org/2000/svg" xmlns:xlink="http://www.w3.org/1999/xlink" contentStyleType="text/css" data-diagram-type="DESCRIPTION" height="92.5463px" preserveAspectRatio="none" style="width:800px;height:92px;background:#FFFFFF;" version="1.1" viewBox="0 0 800 92" width="800.1052px" zoomAndPan="magnify"><title>MSP430FR2355 Memory Layout (16-bit Address Space)</title><defs/><g><g class="title" data-source-line="2"><text fill="#000000" font-family="Verdana" font-size="4.6273" font-weight="bold" lengthAdjust="spacing" textLength="143.9439" x="327.1867" y="7.4502">MSP430FR2355 Memory Layout (16-bit Address Space)</text></g><!--cluster MEMORY--><g class="cluster" data-entity="MEMORY" data-source-line="6" data-uid="ent0002" id="cluster_MEMORY"><rect fill="#FFFFFF" height="31.9706" rx="0.5258" ry="0.5258" style="stroke:#000000;stroke-width:0.2103;" width="760.3523" x="38.596" y="25.5784"/><text fill="#000000" font-family="Verdana" font-size="2.9447" font-weight="bold" lengthAdjust="spacing" textLength="48.2964" x="394.624" y="28.7324">MSP430FR2355 Memory Map</text><text fill="#000000" font-family="Verdana" font-size="2.9447" font-weight="bold" lengthAdjust="spacing" textLength="30.1022" x="403.7211" y="32.1601">(0x0000 - 0xFFFF)</text></g><!--entity SFR--><g class="entity" data-entity="SFR" data-source-line="8" data-uid="ent0003" id="entity_SFR"><rect fill="#ADD8E6" height="14.4899" rx="0.5258" ry="0.5258" style="stroke:#000000;stroke-width:0.2103;" width="43.1644" x="705.4555" y="37.988"/><text fill="#000000" font-family="Verdana" font-size="2.9447" lengthAdjust="spacing" textLength="38.9577" x="707.5588" y="42.8247">Special Function Registers</text><text fill="#000000" font-family="Verdana" font-size="2.9447" lengthAdjust="spacing" textLength="24.7952" x="707.5588" y="46.2524">0x0000 - 0x00FF</text><text fill="#000000" font-family="Verdana" font-size="2.9447" lengthAdjust="spacing" textLength="14.6686" x="707.5588" y="49.6802">256 bytes</text></g><g class="entity" data-entity="GMN4" data-source-line="9" data-uid="ent0005" id="entity_GMN4"><path d="M756.0405,41.0379 L756.0405,44.4032 L748.6515,45.2445 L756.0405,46.0858 L756.0405,49.507 A0,0 0 0 0 756.0405,49.507 L793.9596,49.507 A0,0 0 0 0 793.9596,49.507 L793.9596,43.1412 L791.8563,41.0379 L756.0405,41.0379 A0,0 0 0 0 756.0405,41.0379" fill="#FFFFFF" style="stroke:#000000;stroke-width:0.2103;"/><path d="M791.8563,41.0379 L791.8563,43.1412 L793.9596,43.1412 L791.8563,41.0379" fill="#FFFFFF" style="stroke:#000000;stroke-width:0.2103;"/><text fill="#000000" font-family="Verdana" font-size="2.7343" lengthAdjust="spacing" textLength="15.2564" x="757.3025" y="44.6276">Read/Write</text><text fill="#000000" font-family="Verdana" font-size="2.7343" lengthAdjust="spacing" textLength="33.5021" x="757.3025" y="47.8105">System control registers</text></g><!--entity PER8--><g class="entity" data-entity="PER8" data-source-line="11" data-uid="ent0007" id="entity_PER8"><rect fill="#90EE90" height="14.4899" rx="0.5258" ry="0.5258" style="stroke:#000000;stroke-width:0.2103;" width="29.0019" x="610.28" y="37.988"/><text fill="#000000" font-family="Verdana" font-size="2.9447" lengthAdjust="spacing" textLength="24.2445" x="612.3833" y="42.8247">8-bit Peripherals</text><text fill="#000000" font-family="Verdana" font-size="2.9447" lengthAdjust="spacing" textLength="24.7952" x="612.3833" y="46.2524">0x0100 - 0x01FF</text><text fill="#000000" font-family="Verdana" font-size="2.9447" lengthAdjust="spacing" textLength="14.6686" x="612.3833" y="49.6802">256 bytes</text></g><g class="entity" data-entity="GMN8" data-source-line="12" data-uid="ent0009" id="entity_GMN8"><path d="M646.6675,41.0379 L646.6675,44.4032 L639.369,45.2445 L646.6675,46.0858 L646.6675,49.507 A0,0 0 0 0 646.6675,49.507 L697.8885,49.507 A0,0 0 0 0 697.8885,49.507 L697.8885,43.1412 L695.7851,41.0379 L646.6675,41.0379 A0,0 0 0 0 646.6675,41.0379" fill="#FFFFFF" style="stroke:#000000;stroke-width:0.2103;"/><path d="M695.7851,41.0379 L695.7851,43.1412 L697.8885,43.1412 L695.7851,41.0379" fill="#FFFFFF" style="stroke:#000000;stroke-width:0.2103;"/><text fill="#000000" font-family="Verdana" font-size="2.7343" lengthAdjust="spacing" textLength="15.2564" x="647.9295" y="44.6276">Read/Write</text><text fill="#000000" font-family="Verdana" font-size="2.7343" lengthAdjust="spacing" textLength="46.8039" x="647.9295" y="47.8105">Memory-mapped 8-bit peripherals</text></g><!--entity PER16--><g class="entity" data-entity="PER16" data-source-line="14" data-uid="ent0011" id="entity_PER16"><rect fill="#90EE90" height="14.4899" rx="0.5258" ry="0.5258" style="stroke:#000000;stroke-width:0.2103;" width="30.3247" x="512.265" y="37.988"/><text fill="#000000" font-family="Verdana" font-size="2.9447" lengthAdjust="spacing" textLength="26.118" x="514.3683" y="42.8247">16-bit Peripherals</text><text fill="#000000" font-family="Verdana" font-size="2.9447" lengthAdjust="spacing" textLength="24.9749" x="514.3683" y="46.2524">0x0200 - 0x027F</text><text fill="#000000" font-family="Verdana" font-size="2.9447" lengthAdjust="spacing" textLength="14.6686" x="514.3683" y="49.6802">128 bytes</text></g><g class="entity" data-entity="GMN12" data-source-line="15" data-uid="ent0013" id="entity_GMN12"><path d="M549.9146,41.0379 L549.9146,44.4032 L542.6286,45.2445 L549.9146,46.0858 L549.9146,49.507 A0,0 0 0 0 549.9146,49.507 L602.8751,49.507 A0,0 0 0 0 602.8751,49.507 L602.8751,43.1412 L600.7718,41.0379 L549.9146,41.0379 A0,0 0 0 0 549.9146,41.0379" fill="#FFFFFF" style="stroke:#000000;stroke-width:0.2103;"/><path d="M600.7718,41.0379 L600.7718,43.1412 L602.8751,43.1412 L600.7718,41.0379" fill="#FFFFFF" style="stroke:#000000;stroke-width:0.2103;"/><text fill="#000000" font-family="Verdana" font-size="2.7343" lengthAdjust="spacing" textLength="15.2564" x="551.1765" y="44.6276">Read/Write</text><text fill="#000000" font-family="Verdana" font-size="2.7343" lengthAdjust="spacing" textLength="48.5436" x="551.1765" y="47.8105">Memory-mapped 16-bit peripherals</text></g><!--entity BSL--><g class="entity" data-entity="BSL" data-source-line="17" data-uid="ent0015" id="entity_BSL"><rect fill="#FFA500" height="14.4899" rx="0.5258" ry="0.5258" style="stroke:#000000;stroke-width:0.2103;" width="38.8624" x="422.7685" y="37.988"/><text fill="#000000" font-family="Verdana" font-size="2.9447" lengthAdjust="spacing" textLength="34.6558" x="424.8718" y="42.8247">Bootstrap Loader FRAM</text><text fill="#000000" font-family="Verdana" font-size="2.9447" lengthAdjust="spacing" textLength="24.7952" x="424.8718" y="46.2524">0x1000 - 0x17FF</text><text fill="#000000" font-family="Verdana" font-size="2.9447" lengthAdjust="spacing" textLength="16.5421" x="424.8718" y="49.6802">2048 bytes</text></g><g class="entity" data-entity="GMN16" data-source-line="18" data-uid="ent0017" id="entity_GMN16"><path d="M469.1468,41.0379 L469.1468,44.4032 L461.7368,45.2445 L469.1468,46.0858 L469.1468,49.507 A0,0 0 0 0 469.1468,49.507 L504.9805,49.507 A0,0 0 0 0 504.9805,49.507 L504.9805,43.1412 L502.8772,41.0379 L469.1468,41.0379 A0,0 0 0 0 469.1468,41.0379" fill="#FFFFFF" style="stroke:#000000;stroke-width:0.2103;"/><path d="M502.8772,41.0379 L502.8772,43.1412 L504.9805,43.1412 L502.8772,41.0379" fill="#FFFFFF" style="stroke:#000000;stroke-width:0.2103;"/><text fill="#000000" font-family="Verdana" font-size="2.7343" lengthAdjust="spacing" textLength="18.9333" x="470.4088" y="44.6276">Read/Execute</text><text fill="#000000" font-family="Verdana" font-size="2.7343" lengthAdjust="spacing" textLength="31.4167" x="470.4088" y="47.8105">Bootstrap loader FRAM</text></g><!--entity INFO--><g class="entity" data-entity="INFO" data-source-line="20" data-uid="ent0019" id="entity_INFO"><rect fill="#FFFF00" height="14.4899" rx="0.5258" ry="0.5258" style="stroke:#000000;stroke-width:0.2103;" width="43.4462" x="328.1188" y="37.988"/><text fill="#000000" font-family="Verdana" font-size="2.9447" lengthAdjust="spacing" textLength="39.2396" x="330.2222" y="42.8247">Information Memory FRAM</text><text fill="#000000" font-family="Verdana" font-size="2.9447" lengthAdjust="spacing" textLength="24.7952" x="330.2222" y="46.2524">0x1800 - 0x19FF</text><text fill="#000000" font-family="Verdana" font-size="2.9447" lengthAdjust="spacing" textLength="14.6686" x="330.2222" y="49.6802">512 bytes</text></g><g class="entity" data-entity="GMN20" data-source-line="21" data-uid="ent0021" id="entity_GMN20"><path d="M379.1245,41.0379 L379.1245,44.4032 L371.7019,45.2445 L379.1245,46.0858 L379.1245,49.507 A0,0 0 0 0 379.1245,49.507 L415.2612,49.507 A0,0 0 0 0 415.2612,49.507 L415.2612,43.1412 L413.1579,41.0379 L379.1245,41.0379 A0,0 0 0 0 379.1245,41.0379" fill="#FFFFFF" style="stroke:#000000;stroke-width:0.2103;"/><path d="M413.1579,41.0379 L413.1579,43.1412 L415.2612,43.1412 L413.1579,41.0379" fill="#FFFFFF" style="stroke:#000000;stroke-width:0.2103;"/><text fill="#000000" font-family="Verdana" font-size="2.7343" lengthAdjust="spacing" textLength="15.2564" x="380.3865" y="44.6276">Read/Write</text><text fill="#000000" font-family="Verdana" font-size="2.7343" lengthAdjust="spacing" textLength="31.7198" x="380.3865" y="47.8105">Device calibration data</text></g><!--entity RAM--><g class="entity" data-entity="RAM" data-source-line="23" data-uid="ent0023" id="entity_RAM"><rect fill="#FFB6C1" height="14.4899" rx="0.5258" ry="0.5258" style="stroke:#000000;stroke-width:0.2103;" width="28.8221" x="241.4618" y="37.988"/><text fill="#000000" font-family="Verdana" font-size="2.9447" lengthAdjust="spacing" textLength="8.4702" x="243.5651" y="42.8247">SRAM</text><text fill="#000000" font-family="Verdana" font-size="2.9447" lengthAdjust="spacing" textLength="24.6155" x="243.5651" y="46.2524">0x2000 - 0x2FFF</text><text fill="#000000" font-family="Verdana" font-size="2.9447" lengthAdjust="spacing" textLength="16.5421" x="243.5651" y="49.6802">4096 bytes</text></g><g class="entity" data-entity="GMN24" data-source-line="24" data-uid="ent0025" id="entity_GMN24"><path d="M277.639,41.0379 L277.639,44.4032 L270.3405,45.2445 L277.639,46.0858 L277.639,49.507 A0,0 0 0 0 277.639,49.507 L320.7504,49.507 A0,0 0 0 0 320.7504,49.507 L320.7504,43.1412 L318.6471,41.0379 L277.639,41.0379 A0,0 0 0 0 277.639,41.0379" fill="#FFFFFF" style="stroke:#000000;stroke-width:0.2103;"/><path d="M318.6471,41.0379 L318.6471,43.1412 L320.7504,43.1412 L318.6471,41.0379" fill="#FFFFFF" style="stroke:#000000;stroke-width:0.2103;"/><text fill="#000000" font-family="Verdana" font-size="2.7343" lengthAdjust="spacing" textLength="27.1964" x="278.901" y="44.6276">Read/Write/Execute</text><text fill="#000000" font-family="Verdana" font-size="2.7343" lengthAdjust="spacing" textLength="38.6944" x="278.901" y="47.8105">High-speed volatile memory</text></g><!--entity FRAM--><g class="entity" data-entity="FRAM" data-source-line="26" data-uid="ent0027" id="entity_FRAM"><rect fill="#FFFFE0" height="14.4899" rx="0.5258" ry="0.5258" style="stroke:#000000;stroke-width:0.2103;" width="28.9688" x="151.9653" y="37.988"/><text fill="#000000" font-family="Verdana" font-size="2.9447" lengthAdjust="spacing" textLength="21.2064" x="154.0686" y="42.8247">FRAM Memory</text><text fill="#000000" font-family="Verdana" font-size="2.9447" lengthAdjust="spacing" textLength="24.7621" x="154.0686" y="46.2524">0x4000 - 0xBFFF</text><text fill="#000000" font-family="Verdana" font-size="2.9447" lengthAdjust="spacing" textLength="18.4156" x="154.0686" y="49.6802">32768 bytes</text></g><g class="entity" data-entity="GMN28" data-source-line="27" data-uid="ent0029" id="entity_GMN28"><path d="M188.458,41.0379 L188.458,44.4032 L181.0038,45.2445 L188.458,46.0858 L188.458,49.507 A0,0 0 0 0 188.458,49.507 L234.0914,49.507 A0,0 0 0 0 234.0914,49.507 L234.0914,43.1412 L231.9881,41.0379 L188.458,41.0379 A0,0 0 0 0 188.458,41.0379" fill="#FFFFFF" style="stroke:#000000;stroke-width:0.2103;"/><path d="M231.9881,41.0379 L231.9881,43.1412 L234.0914,43.1412 L231.9881,41.0379" fill="#FFFFFF" style="stroke:#000000;stroke-width:0.2103;"/><text fill="#000000" font-family="Verdana" font-size="2.7343" lengthAdjust="spacing" textLength="27.1964" x="189.72" y="44.6276">Read/Write/Execute</text><text fill="#000000" font-family="Verdana" font-size="2.7343" lengthAdjust="spacing" textLength="41.2165" x="189.72" y="47.8105">Non-volatile unified code/data</text></g><!--entity IVT--><g class="entity" data-entity="IVT" data-source-line="29" data-uid="ent0031" id="entity_IVT"><rect fill="#FF0000" height="14.4899" rx="0.5258" ry="0.5258" style="stroke:#000000;stroke-width:0.2103;" width="36.8049" x="47.7455" y="37.988"/><text fill="#000000" font-family="Verdana" font-size="2.9447" lengthAdjust="spacing" textLength="32.5983" x="49.8488" y="42.8247">Interrupt Vector Table</text><text fill="#000000" font-family="Verdana" font-size="2.9447" lengthAdjust="spacing" textLength="24.0634" x="49.8488" y="46.2524">0xFFE0 - 0xFFFF</text><text fill="#000000" font-family="Verdana" font-size="2.9447" lengthAdjust="spacing" textLength="12.7952" x="49.8488" y="49.6802">32 bytes</text></g><g class="entity" data-entity="GMN32" data-source-line="30" data-uid="ent0033" id="entity_GMN32"><path d="M92.0205,41.0379 L92.0205,44.4032 L84.5895,45.2445 L92.0205,46.0858 L92.0205,49.507 A0,0 0 0 0 92.0205,49.507 L144.6086,49.507 A0,0 0 0 0 144.6086,49.507 L144.6086,43.1412 L142.5053,41.0379 L92.0205,41.0379 A0,0 0 0 0 92.0205,41.0379" fill="#FFFFFF" style="stroke:#000000;stroke-width:0.2103;"/><path d="M142.5053,41.0379 L142.5053,43.1412 L144.6086,43.1412 L142.5053,41.0379" fill="#FFFFFF" style="stroke:#000000;stroke-width:0.2103;"/><text fill="#000000" font-family="Verdana" font-size="2.7343" lengthAdjust="spacing" textLength="18.9333" x="93.2825" y="44.6276">Read/Execute</text><text fill="#000000" font-family="Verdana" font-size="2.7343" lengthAdjust="spacing" textLength="48.1711" x="93.2825" y="47.8105">Interrupt service routine addresses</text></g><g class="entity" data-entity="GMN35" data-source-line="34" data-uid="ent0036" id="entity_GMN35"><path d="M2.3137,12.1171 L2.3137,20.5863 L78.2343,20.5863 L78.2343,14.2205 L76.1309,12.1171 L2.3137,12.1171" fill="#FFFFFF" style="stroke:#000000;stroke-width:0.2103;"/><path d="M76.1309,12.1171 L76.1309,14.2205 L78.2343,14.2205 L76.1309,12.1171" fill="#FFFFFF" style="stroke:#000000;stroke-width:0.2103;"/><text fill="#000000" font-family="Verdana" font-size="2.7343" lengthAdjust="spacing" textLength="71.5036" x="3.5757" y="15.7069">MSP430FR2355 Address Space: 64KB (65536 bytes)</text><text fill="#000000" font-family="Verdana" font-size="2.7343" lengthAdjust="spacing" textLength="34.6717" x="3.5757" y="18.8898">FRAM-based Architecture</text></g><!--link GMN35 to MEMORY--><g class="link" data-entity-1="GMN35" data-entity-2="MEMORY" data-source-line="34" data-uid="lnk37" id="link_GMN35_MEMORY"><path d="M40.2787,20.5578 C40.2787,21.5243 40.2787,22.6235 40.2787,23.8081 C40.2787,24.1043 40.2787,24.4058 40.2787,24.7119 C40.2787,24.865 40.2787,25.0192 40.2787,25.1744 C40.2787,25.252 40.2787,25.3299 40.2787,25.4081 C40.2787,25.4472 40.2787,25.4863 40.2787,25.5255" fill="none" id="GMN35-MEMORY" style="stroke:#000000;stroke-width:0.2103;stroke-dasharray:7.0,7.0;"/></g><g class="legend" data-source-line="37"><rect fill="none" height="30.3668" rx="1.5775" ry="1.5775" style="stroke:#000000;stroke-width:0.2103;" width="73.7686" x="362.2744" y="59.6523"/><text fill="#000000" font-family="Verdana" font-size="2.9447" lengthAdjust="spacing" textLength="7.688" x="363.326" y="63.8579">Color</text><text fill="#000000" font-family="Verdana" font-size="2.9447" lengthAdjust="spacing" textLength="18.371" x="371.9501" y="63.8579">Region Type</text><text fill="#000000" font-family="Verdana" font-size="2.9447" lengthAdjust="spacing" textLength="17.573" x="403.8309" y="63.8579">Permissions</text><rect fill="#ADD8E6" height="3.4278" style="stroke:none;stroke-width:0.2103;" width="8.624" x="363.326" y="64.5524"/><text fill="#000000" font-family="Verdana" font-size="2.9447" lengthAdjust="spacing" textLength="0.936" x="363.326" y="67.2857">&#160;</text><text fill="#000000" font-family="Verdana" font-size="2.9447" lengthAdjust="spacing" textLength="13.7901" x="372.8861" y="67.2857">Registers</text><text fill="#000000" font-family="Verdana" font-size="2.9447" lengthAdjust="spacing" textLength="16.43" x="404.7669" y="67.2857">Read/Write</text><rect fill="#90EE90" height="3.4278" style="stroke:none;stroke-width:0.2103;" width="8.624" x="363.326" y="67.9801"/><text fill="#000000" font-family="Verdana" font-size="2.9447" lengthAdjust="spacing" textLength="0.936" x="363.326" y="70.7134">&#160;</text><text fill="#000000" font-family="Verdana" font-size="2.9447" lengthAdjust="spacing" textLength="16.5306" x="372.8861" y="70.7134">Peripherals</text><text fill="#000000" font-family="Verdana" font-size="2.9447" lengthAdjust="spacing" textLength="16.43" x="404.7669" y="70.7134">Read/Write</text><rect fill="#FFA500" height="3.4278" style="stroke:none;stroke-width:0.2103;" width="8.624" x="363.326" y="71.4079"/><text fill="#000000" font-family="Verdana" font-size="2.9447" lengthAdjust="spacing" textLength="0.936" x="363.326" y="74.1412">&#160;</text><text fill="#000000" font-family="Verdana" font-size="2.9447" lengthAdjust="spacing" textLength="25.425" x="372.8861" y="74.1412">Bootstrap Loader</text><text fill="#000000" font-family="Verdana" font-size="2.9447" lengthAdjust="spacing" textLength="20.3897" x="404.7669" y="74.1412">Read/Execute</text><rect fill="#FFFF00" height="3.4278" style="stroke:none;stroke-width:0.2103;" width="8.624" x="363.326" y="74.8357"/><text fill="#000000" font-family="Verdana" font-size="2.9447" lengthAdjust="spacing" textLength="0.936" x="363.326" y="77.569">&#160;</text><text fill="#000000" font-family="Verdana" font-size="2.9447" lengthAdjust="spacing" textLength="30.0088" x="372.8861" y="77.569">Information Memory</text><text fill="#000000" font-family="Verdana" font-size="2.9447" lengthAdjust="spacing" textLength="16.43" x="404.7669" y="77.569">Read/Write</text><rect fill="#FFB6C1" height="3.4278" style="stroke:none;stroke-width:0.2103;" width="8.624" x="363.326" y="78.2634"/><text fill="#000000" font-family="Verdana" font-size="2.9447" lengthAdjust="spacing" textLength="0.936" x="363.326" y="80.9967">&#160;</text><text fill="#000000" font-family="Verdana" font-size="2.9447" lengthAdjust="spacing" textLength="8.4702" x="372.8861" y="80.9967">SRAM</text><text fill="#000000" font-family="Verdana" font-size="2.9447" lengthAdjust="spacing" textLength="29.2884" x="404.7669" y="80.9967">Read/Write/Execute</text><rect fill="#FFFFE0" height="3.4278" style="stroke:none;stroke-width:0.2103;" width="8.624" x="363.326" y="81.6912"/><text fill="#000000" font-family="Verdana" font-size="2.9447" lengthAdjust="spacing" textLength="0.936" x="363.326" y="84.4245">&#160;</text><text fill="#000000" font-family="Verdana" font-size="2.9447" lengthAdjust="spacing" textLength="21.2064" x="372.8861" y="84.4245">FRAM Memory</text><text fill="#000000" font-family="Verdana" font-size="2.9447" lengthAdjust="spacing" textLength="29.2884" x="404.7669" y="84.4245">Read/Write/Execute</text><rect fill="#FF0000" height="3.4278" style="stroke:none;stroke-width:0.2103;" width="8.624" x="363.326" y="85.119"/><text fill="#000000" font-family="Verdana" font-size="2.9447" lengthAdjust="spacing" textLength="0.936" x="363.326" y="87.8523">&#160;</text><text fill="#000000" font-family="Verdana" font-size="2.9447" lengthAdjust="spacing" textLength="25.0943" x="372.8861" y="87.8523">Interrupt Vectors</text><text fill="#000000" font-family="Verdana" font-size="2.9447" lengthAdjust="spacing" textLength="20.3897" x="404.7669" y="87.8523">Read/Execute</text><line style="stroke:#000000;stroke-width:0.2103;" x1="363.326" x2="434.9913" y1="61.1246" y2="61.1246"/><line style="stroke:#000000;stroke-width:0.2103;" x1="363.326" x2="434.9913" y1="64.5524" y2="64.5524"/><line style="stroke:#000000;stroke-width:0.2103;" x1="363.326" x2="434.9913" y1="67.9801" y2="67.9801"/><line style="stroke:#000000;stroke-width:0.2103;" x1="363.326" x2="434.9913" y1="71.4079" y2="71.4079"/><line style="stroke:#000000;stroke-width:0.2103;" x1="363.326" x2="434.9913" y1="74.8357" y2="74.8357"/><line style="stroke:#000000;stroke-width:0.2103;" x1="363.326" x2="434.9913" y1="78.2634" y2="78.2634"/><line style="stroke:#000000;stroke-width:0.2103;" x1="363.326" x2="434.9913" y1="81.6912" y2="81.6912"/><line style="stroke:#000000;stroke-width:0.2103;" x1="363.326" x2="434.9913" y1="85.119" y2="85.119"/><line style="stroke:#000000;stroke-width:0.2103;" x1="363.326" x2="434.9913" y1="88.5467" y2="88.5467"/><line style="stroke:#000000;stroke-width:0.2103;" x1="363.326" x2="363.326" y1="61.1246" y2="88.5467"/><line style="stroke:#000000;stroke-width:0.2103;" x1="371.9501" x2="371.9501" y1="61.1246" y2="88.5467"/><line style="stroke:#000000;stroke-width:0.2103;" x1="403.8309" x2="403.8309" y1="61.1246" y2="88.5467"/><line style="stroke:#000000;stroke-width:0.2103;" x1="434.9913" x2="434.9913" y1="61.1246" y2="88.5467"/></g><!--SRC=[XPJVJzim4CVVyrVSwCFWeI99Vr3GD8bkZOP60RM8QL9VdEHehILsPBj0jUv_tpb9IK9Jo4ChsUUxZxzt_duoAqmHieHnuHXk4eJf_AxVSuEPtniCO8gfL1kuPXkvDd3i3RiXDt0PnmgrXdd68Znn71qnEZXoNNZciLavZiB8CB6anQEsT5EMBSIn- -BI1rrmNmBwJew0QPXEfhUpt_3N0VhodrgkUOOHPma4Qn4PBWNCSCcrGQKNefRDTODW8Vp14CADGPtddGSpw2HykJ9XiiOyiP06GTaba8zvm0KbPF7fByKDBiHyGwbJYAGmIYR4KTPgHHlbmjoXujaA5KiA8cz7vEqJtKrcen9fgH152rCUqeGg5EocBCimXg9gLbLjPIkxzXREty7vPmJd-QCcd3Vyc8vYtiCh2t_4DvRIQADO1jUInQWWc5rEBQAtwwXtbkldzkkCu_arTAIY96tzjBibs-G5exMbgmebLQ5Mf2lnA5NAyY4hX_OLQhI3EhTG0y-lCLtT1BVGsM2IoESMg7oxgTXtVE8H0hqW7ggYOCmCQv__4i7VwU875g7ldjS7YuBApcLS_6cXi05rY4gW7nJIrHbIxvvaGZHKDSsltyfZ9IdbiLZz7TOun-hvPyDwlu8AxA10mM6s6ocwhr1hmHyvKKOonjE3Ubq9UgzgdHbue4Mfu9w52LhK89XKpcDHwpryk8UEmhYjVxJrTgYg8XfLtaj5Nia50Yji4hNppt4-MzVSBK72GgJNa6StChEvI-UxQ1fmmselODZ_EORZuM3GApj-iX1Misx8DCbngQ8LYHQPjK9RyfjCwDO9Bb74Jl47eJH6fldbjiN-rjeepTtz9aFOaasaN6jQqB0jmhvKplbrMvakR6kDUXERcmO5rqpdG7ZnWYbqpmQs3QMh4yNqq8cML_eEadqDTCW-eaROVe7QZDA1sfH_S8w69gTgJftUlmZreMpAVm00]--></g></svg>