<svg xmlns="http://www.w3.org/2000/svg" xmlns:xlink="http://www.w3.org/1999/xlink" contentStyleType="text/css" data-diagram-type="ACTIVITY" height="906px" preserveAspectRatio="none" style="width:659px;height:906px;background:#FFFFFF;" version="1.1" viewBox="0 0 659 906" width="659px" zoomAndPan="magnify"><title>MSP430 Memory Access Validation Flow</title><defs/><g><g class="title" data-source-line="2"><text fill="#000000" font-family="Verdana" font-size="22" font-weight="bold" lengthAdjust="spacing" textLength="499.0713" x="78.8162" y="35.4209">MSP430 Memory Access Validation Flow</text></g><ellipse cx="314.2239" cy="61.6094" fill="#FFFFFF" rx="10" ry="10" style="stroke:#000000;stroke-width:1;"/><path d="M417.7268,81.6094 L417.7268,120.4414 L397.7268,124.4414 L417.7268,128.4414 L417.7268,167.2734 A0,0 0 0 0 417.7268,167.2734 L652.0588,167.2734 A0,0 0 0 0 652.0588,167.2734 L652.0588,91.6094 L642.0588,81.6094 L417.7268,81.6094 A0,0 0 0 0 417.7268,81.6094" fill="#FFFFFF" style="stroke:#000000;stroke-width:1;"/><path d="M642.0588,81.6094 L642.0588,91.6094 L652.0588,91.6094 L642.0588,81.6094" fill="#FFFFFF" style="stroke:#000000;stroke-width:1;"/><text fill="#000000" font-family="Verdana" font-size="13" lengthAdjust="spacing" textLength="91.9014" x="423.7268" y="98.6763">Access Types:</text><text fill="#000000" font-family="Verdana" font-size="13" lengthAdjust="spacing" textLength="88.8545" x="423.7268" y="113.8091">- Read (0x01)</text><text fill="#000000" font-family="Verdana" font-size="13" lengthAdjust="spacing" textLength="90.5112" x="423.7268" y="128.9419">- Write (0x02)</text><text fill="#000000" font-family="Verdana" font-size="13" lengthAdjust="spacing" textLength="107.9927" x="423.7268" y="144.0747">- Execute (0x04)</text><text fill="#000000" font-family="Verdana" font-size="13" lengthAdjust="spacing" textLength="213.332" x="423.7268" y="159.2075">- Combinations (ReadWrite, etc.)</text><rect fill="#FFFFFF" height="47.9375" rx="12.5" ry="12.5" style="stroke:#000000;stroke-width:1;" width="167.0059" x="230.7209" y="100.4727"/><text fill="#000000" font-family="Verdana" font-size="12" lengthAdjust="spacing" textLength="147.0059" x="240.7209" y="121.6113">Memory Access Request</text><text fill="#000000" font-family="Verdana" font-size="12" lengthAdjust="spacing" textLength="139.793" x="240.7209" y="135.5801">(Address, Access Type)</text><rect fill="#FFFFFF" height="323.2969" style="stroke:#000000;stroke-width:1;" width="647.7036" x="6" y="177.2734"/><path d="M146.9766,177.2734 L146.9766,186.5703 L136.9766,196.5703 L6,196.5703" fill="none" style="stroke:#000000;stroke-width:1;"/><text fill="#000000" font-family="Verdana" font-size="14" lengthAdjust="spacing" textLength="130.9766" x="9" y="191.2686">Address Validation</text><rect fill="#FFFFFF" height="47.9375" rx="12.5" ry="12.5" style="stroke:#000000;stroke-width:1;" width="165.4648" x="231.4915" y="213.5703"/><text fill="#000000" font-family="Verdana" font-size="12" lengthAdjust="spacing" textLength="145.4648" x="241.4915" y="234.709">Check if address is valid</text><text fill="#000000" font-family="Verdana" font-size="12" lengthAdjust="spacing" textLength="127.6992" x="241.4915" y="248.6777">(mapped to a region)</text><polygon fill="#FFFFFF" points="274.2629,281.5078,354.1848,281.5078,366.1848,293.5078,354.1848,305.5078,274.2629,305.5078,262.2629,293.5078,274.2629,281.5078" style="stroke:#000000;stroke-width:1;"/><text fill="#000000" font-family="Verdana" font-size="11" lengthAdjust="spacing" textLength="79.9219" x="274.2629" y="297.3159">Address valid?</text><text fill="#000000" font-family="Verdana" font-size="11" lengthAdjust="spacing" textLength="19.0083" x="243.2546" y="290.9136">yes</text><text fill="#000000" font-family="Verdana" font-size="11" lengthAdjust="spacing" textLength="13.7017" x="366.1848" y="290.9136">no</text><path d="M201.6895,315.5078 L201.6895,377.0391 L181.6895,381.0391 L201.6895,385.0391 L201.6895,446.5703 A0,0 0 0 0 201.6895,446.5703 L403.5024,446.5703 A0,0 0 0 0 403.5024,446.5703 L403.5024,325.5078 L393.5024,315.5078 L201.6895,315.5078 A0,0 0 0 0 201.6895,315.5078" fill="#FFFFFF" style="stroke:#000000;stroke-width:1;"/><path d="M393.5024,315.5078 L393.5024,325.5078 L403.5024,325.5078 L393.5024,315.5078" fill="#FFFFFF" style="stroke:#000000;stroke-width:1;"/><text fill="#000000" font-family="Verdana" font-size="13" lengthAdjust="spacing" textLength="113.2422" x="207.6895" y="332.5747">Memory Regions:</text><text fill="#000000" font-family="Verdana" font-size="13" lengthAdjust="spacing" textLength="180.813" x="207.6895" y="347.7075">- Special Function Registers</text><text fill="#000000" font-family="Verdana" font-size="13" lengthAdjust="spacing" textLength="158.4312" x="207.6895" y="362.8403">- 8-bit/16-bit Peripherals</text><text fill="#000000" font-family="Verdana" font-size="13" lengthAdjust="spacing" textLength="121.0688" x="207.6895" y="377.9731">- Bootstrap Loader</text><text fill="#000000" font-family="Verdana" font-size="13" lengthAdjust="spacing" textLength="141.3052" x="207.6895" y="393.106">- Information Memory</text><text fill="#000000" font-family="Verdana" font-size="13" lengthAdjust="spacing" textLength="37.9653" x="207.6895" y="408.2388">- RAM</text><text fill="#000000" font-family="Verdana" font-size="13" lengthAdjust="spacing" textLength="99.8931" x="207.6895" y="423.3716">- Flash Memory</text><text fill="#000000" font-family="Verdana" font-size="13" lengthAdjust="spacing" textLength="152.7373" x="207.6895" y="438.5044">- Interrupt Vector Table</text><rect fill="#FFFFFF" height="33.9688" rx="12.5" ry="12.5" style="stroke:#000000;stroke-width:1;" width="163.6895" x="18" y="364.0547"/><text fill="#000000" font-family="Verdana" font-size="12" lengthAdjust="spacing" textLength="143.6895" x="28" y="385.1934">Get memory region info</text><rect fill="#FFFFFF" height="33.9688" rx="12.5" ry="12.5" style="stroke:#000000;stroke-width:1;" width="93.7227" x="481.7417" y="315.5078"/><text fill="#000000" font-family="Verdana" font-size="12" lengthAdjust="spacing" textLength="73.7227" x="491.7417" y="336.6465">Log warning</text><rect fill="#FFFFFF" height="47.9375" rx="12.5" ry="12.5" style="stroke:#000000;stroke-width:1;" width="210.2012" x="423.5024" y="384.4766"/><text fill="#000000" font-family="Verdana" font-size="12" lengthAdjust="spacing" textLength="190.2012" x="433.5024" y="405.6152">Throw MemoryAccessException</text><text fill="#000000" font-family="Verdana" font-size="12" lengthAdjust="spacing" textLength="102.1465" x="433.5024" y="419.584">"Invalid address"</text><ellipse cx="528.603" cy="477.5703" fill="none" rx="11" ry="11" style="stroke:#000000;stroke-width:1;"/><ellipse cx="528.603" cy="477.5703" fill="#FFFFFF" rx="6" ry="6" style="stroke:#000000;stroke-width:1;"/><rect fill="#FFFFFF" height="389.9766" style="stroke:#000000;stroke-width:1;" width="443.2441" x="104.8914" y="510.5703"/><path d="M265.8152,510.5703 L265.8152,519.8672 L255.8152,529.8672 L104.8914,529.8672" fill="none" style="stroke:#000000;stroke-width:1;"/><text fill="#000000" font-family="Verdana" font-size="14" lengthAdjust="spacing" textLength="150.9238" x="107.8914" y="524.5654">Permission Validation</text><rect fill="#FFFFFF" height="33.9688" rx="12.5" ry="12.5" style="stroke:#000000;stroke-width:1;" width="159.2246" x="234.6116" y="546.8672"/><text fill="#000000" font-family="Verdana" font-size="12" lengthAdjust="spacing" textLength="139.2246" x="244.6116" y="568.0059">Get region permissions</text><polygon fill="#FFFFFF" points="255.4319,600.8359,373.0159,600.8359,385.0159,612.8359,373.0159,624.8359,255.4319,624.8359,243.4319,612.8359,255.4319,600.8359" style="stroke:#000000;stroke-width:1;"/><text fill="#000000" font-family="Verdana" font-size="11" lengthAdjust="spacing" textLength="117.584" x="255.4319" y="616.644">Access type allowed?</text><text fill="#000000" font-family="Verdana" font-size="11" lengthAdjust="spacing" textLength="19.0083" x="224.4236" y="610.2417">yes</text><text fill="#000000" font-family="Verdana" font-size="11" lengthAdjust="spacing" textLength="13.7017" x="385.0159" y="610.2417">no</text><rect fill="#FFFFFF" height="47.9375" rx="12.5" ry="12.5" style="stroke:#000000;stroke-width:1;" width="141.043" x="134.8914" y="683.2383"/><text fill="#000000" font-family="Verdana" font-size="12" lengthAdjust="spacing" textLength="121.043" x="144.8914" y="704.377">Log debug message</text><text fill="#000000" font-family="Verdana" font-size="12" lengthAdjust="spacing" textLength="111.9434" x="144.8914" y="718.3457">"Access validated"</text><polygon fill="#FFFFFF" points="138.395,634.8359,272.4307,634.8359,284.4307,646.8359,272.4307,658.8359,138.395,658.8359,126.395,646.8359,138.395,634.8359" style="stroke:#000000;stroke-width:1;"/><text fill="#000000" font-family="Verdana" font-size="11" lengthAdjust="spacing" textLength="19.0083" x="209.4128" y="669.0464">yes</text><text fill="#000000" font-family="Verdana" font-size="11" lengthAdjust="spacing" textLength="134.0356" x="138.395" y="650.644">Debug logging enabled?</text><text fill="#000000" font-family="Verdana" font-size="11" lengthAdjust="spacing" textLength="13.7017" x="284.4307" y="644.2417">no</text><polygon fill="#FFFFFF" points="205.4128,755.5781,217.4128,767.5781,205.4128,779.5781,193.4128,767.5781,205.4128,755.5781" style="stroke:#000000;stroke-width:1;"/><rect fill="#FFFFFF" height="33.9688" rx="12.5" ry="12.5" style="stroke:#000000;stroke-width:1;" width="96.2832" x="157.2712" y="814.5781"/><text fill="#000000" font-family="Verdana" font-size="12" lengthAdjust="spacing" textLength="76.2832" x="167.2712" y="835.7168">Allow access</text><ellipse cx="205.4128" cy="878.5469" fill="none" rx="10" ry="10" style="stroke:#000000;stroke-width:1.5;"/><line style="stroke:#000000;stroke-width:2.5;" x1="199.2257" x2="211.6" y1="872.3597" y2="884.7341"/><line style="stroke:#000000;stroke-width:2.5;" x1="211.6" x2="199.2257" y1="872.3597" y2="884.7341"/><rect fill="#FFFFFF" height="33.9688" rx="12.5" ry="12.5" style="stroke:#000000;stroke-width:1;" width="172.25" x="336.9099" y="634.8359"/><text fill="#000000" font-family="Verdana" font-size="12" lengthAdjust="spacing" textLength="152.25" x="346.9099" y="655.9746">Log warning with context</text><rect fill="#FFFFFF" height="47.9375" rx="12.5" ry="12.5" style="stroke:#000000;stroke-width:1;" width="210.2012" x="317.9343" y="703.8047"/><text fill="#000000" font-family="Verdana" font-size="12" lengthAdjust="spacing" textLength="190.2012" x="327.9343" y="724.9434">Throw MemoryAccessException</text><text fill="#000000" font-family="Verdana" font-size="12" lengthAdjust="spacing" textLength="97.084" x="327.9343" y="738.9121">"Access denied"</text><ellipse cx="423.0349" cy="797.7422" fill="none" rx="11" ry="11" style="stroke:#000000;stroke-width:1;"/><ellipse cx="423.0349" cy="797.7422" fill="#FFFFFF" rx="6" ry="6" style="stroke:#000000;stroke-width:1;"/><line style="stroke:#000000;stroke-width:1;" x1="314.2239" x2="314.2239" y1="71.6094" y2="100.4727"/><polygon fill="#000000" points="310.2239,90.4727,314.2239,100.4727,318.2239,90.4727,314.2239,94.4727" style="stroke:#000000;stroke-width:1;"/><line style="stroke:#000000;stroke-width:1;" x1="528.603" x2="528.603" y1="349.4766" y2="384.4766"/><polygon fill="#000000" points="524.603,374.4766,528.603,384.4766,532.603,374.4766,528.603,378.4766" style="stroke:#000000;stroke-width:1;"/><line style="stroke:#000000;stroke-width:1;" x1="528.603" x2="528.603" y1="432.4141" y2="466.5703"/><polygon fill="#000000" points="524.603,456.5703,528.603,466.5703,532.603,456.5703,528.603,460.5703" style="stroke:#000000;stroke-width:1;"/><line style="stroke:#000000;stroke-width:1;" x1="262.2629" x2="99.8447" y1="293.5078" y2="293.5078"/><line style="stroke:#000000;stroke-width:1;" x1="99.8447" x2="99.8447" y1="293.5078" y2="364.0547"/><polygon fill="#000000" points="95.8447,354.0547,99.8447,364.0547,103.8447,354.0547,99.8447,358.0547" style="stroke:#000000;stroke-width:1;"/><line style="stroke:#000000;stroke-width:1;" x1="366.1848" x2="528.603" y1="293.5078" y2="293.5078"/><line style="stroke:#000000;stroke-width:1;" x1="528.603" x2="528.603" y1="293.5078" y2="315.5078"/><polygon fill="#000000" points="524.603,305.5078,528.603,315.5078,532.603,305.5078,528.603,309.5078" style="stroke:#000000;stroke-width:1;"/><line style="stroke:#000000;stroke-width:1;" x1="99.8447" x2="99.8447" y1="398.0234" y2="493.5703"/><line style="stroke:#000000;stroke-width:1;" x1="99.8447" x2="314.2239" y1="493.5703" y2="493.5703"/><line style="stroke:#000000;stroke-width:1;" x1="314.2239" x2="314.2239" y1="493.5703" y2="546.8672"/><polygon fill="#000000" points="310.2239,536.8672,314.2239,546.8672,318.2239,536.8672,314.2239,540.8672" style="stroke:#000000;stroke-width:1;"/><line style="stroke:#000000;stroke-width:1;" x1="314.2239" x2="314.2239" y1="261.5078" y2="281.5078"/><polygon fill="#000000" points="310.2239,271.5078,314.2239,281.5078,318.2239,271.5078,314.2239,275.5078" style="stroke:#000000;stroke-width:1;"/><line style="stroke:#000000;stroke-width:1;" x1="314.2239" x2="314.2239" y1="148.4102" y2="213.5703"/><polygon fill="#000000" points="310.2239,203.5703,314.2239,213.5703,318.2239,203.5703,314.2239,207.5703" style="stroke:#000000;stroke-width:1;"/><line style="stroke:#000000;stroke-width:1;" x1="205.4128" x2="205.4128" y1="658.8359" y2="683.2383"/><polygon fill="#000000" points="201.4128,673.2383,205.4128,683.2383,209.4128,673.2383,205.4128,677.2383" style="stroke:#000000;stroke-width:1;"/><line style="stroke:#000000;stroke-width:1;" x1="284.4307" x2="296.4307" y1="646.8359" y2="646.8359"/><polygon fill="#000000" points="292.4307,697.207,296.4307,707.207,300.4307,697.207,296.4307,701.207" style="stroke:#000000;stroke-width:1;"/><line style="stroke:#000000;stroke-width:1;" x1="296.4307" x2="296.4307" y1="646.8359" y2="767.5781"/><line style="stroke:#000000;stroke-width:1;" x1="296.4307" x2="217.4128" y1="767.5781" y2="767.5781"/><polygon fill="#000000" points="227.4128,763.5781,217.4128,767.5781,227.4128,771.5781,223.4128,767.5781" style="stroke:#000000;stroke-width:1;"/><line style="stroke:#000000;stroke-width:1;" x1="205.4128" x2="205.4128" y1="731.1758" y2="755.5781"/><polygon fill="#000000" points="201.4128,745.5781,205.4128,755.5781,209.4128,745.5781,205.4128,749.5781" style="stroke:#000000;stroke-width:1;"/><line style="stroke:#000000;stroke-width:1;" x1="205.4128" x2="205.4128" y1="779.5781" y2="814.5781"/><polygon fill="#000000" points="201.4128,804.5781,205.4128,814.5781,209.4128,804.5781,205.4128,808.5781" style="stroke:#000000;stroke-width:1;"/><line style="stroke:#000000;stroke-width:1;" x1="205.4128" x2="205.4128" y1="848.5469" y2="868.5469"/><polygon fill="#000000" points="201.4128,858.5469,205.4128,868.5469,209.4128,858.5469,205.4128,862.5469" style="stroke:#000000;stroke-width:1;"/><line style="stroke:#000000;stroke-width:1;" x1="423.0349" x2="423.0349" y1="668.8047" y2="703.8047"/><polygon fill="#000000" points="419.0349,693.8047,423.0349,703.8047,427.0349,693.8047,423.0349,697.8047" style="stroke:#000000;stroke-width:1;"/><line style="stroke:#000000;stroke-width:1;" x1="423.0349" x2="423.0349" y1="751.7422" y2="786.7422"/><polygon fill="#000000" points="419.0349,776.7422,423.0349,786.7422,427.0349,776.7422,423.0349,780.7422" style="stroke:#000000;stroke-width:1;"/><line style="stroke:#000000;stroke-width:1;" x1="243.4319" x2="205.4128" y1="612.8359" y2="612.8359"/><line style="stroke:#000000;stroke-width:1;" x1="205.4128" x2="205.4128" y1="612.8359" y2="634.8359"/><polygon fill="#000000" points="201.4128,624.8359,205.4128,634.8359,209.4128,624.8359,205.4128,628.8359" style="stroke:#000000;stroke-width:1;"/><line style="stroke:#000000;stroke-width:1;" x1="385.0159" x2="423.0349" y1="612.8359" y2="612.8359"/><line style="stroke:#000000;stroke-width:1;" x1="423.0349" x2="423.0349" y1="612.8359" y2="634.8359"/><polygon fill="#000000" points="419.0349,624.8359,423.0349,634.8359,427.0349,624.8359,423.0349,628.8359" style="stroke:#000000;stroke-width:1;"/><line style="stroke:#000000;stroke-width:1;" x1="314.2239" x2="314.2239" y1="580.8359" y2="600.8359"/><polygon fill="#000000" points="310.2239,590.8359,314.2239,600.8359,318.2239,590.8359,314.2239,594.8359" style="stroke:#000000;stroke-width:1;"/><!--SRC=[ZLF1RXen4BtxAwQSG0eDQQEgWaD4qr0X1IaYABtaOdQ7NQjUsxM70Ahwxx6ztWri4Ya-xCBupSoRDsy_KOaLWf5SA4Q29CBY_kxowmWMM6bxW6cMeNFmmAN8EGcjO2RrZZ57t19ZurFO4lzkqT6Zwa_ptFh8MNEpEXWSJ9ZIX615KH83VuuktJX6Xhu6pw4_seyk1YdosmgV5K9Vcj3D7hDj2busmMjThOMAB1tqGvsOUGP8sUS1GvL3wC-OyTn57AQNU1uDs8D_iTxukiJi3uWDy8GH3fu2p8zNSMCm1zB0mMBXq_nm8Ii-V4uZG9rnDG0lj8B-0LtDDdRuXGHLBM1T18JQw4aBwAZLdAJvCgOatPepX7k3cU0IPbkLnHa3pX5Qrm5-7wu5dLzy2o-uGojCYPRBBko7rkJ8SWEtckTeEzTppzXMjJLgOXt0ShheH6QIk_9jy5nvedPh21um8srXnTSIMr2xmlX7Ecy0fOy4lTK5xBXLGXKlAevNfTMxrAzstCq-GnCeFwhUNCKLDLlklIGwqeQbjcB3_fyOnmjM2UV2xpUy4pQRLcfQeEjQf7O_UVS3b_wpmdUC4i0_SRqjGEgYyCDvHa6NT-2j57dCgNmJNg0VDJLyglbYVZJhQp7heTjwqq0GUAmmEGPzO1Um4rH2flroz_JXnIIsEIfnGlNLMfu1]--></g></svg>