<svg xmlns="http://www.w3.org/2000/svg" xmlns:xlink="http://www.w3.org/1999/xlink" contentStyleType="text/css" data-diagram-type="CLASS" height="1197px" preserveAspectRatio="none" style="width:1675px;height:1197px;background:#FFFFFF;" version="1.1" viewBox="0 0 1675 1197" width="1675px" zoomAndPan="magnify"><title>Memory System Component Architecture</title><defs/><g><g class="title" data-source-line="86"><text fill="#000000" font-family="Verdana" font-size="22" font-weight="bold" lengthAdjust="spacing" textLength="511.0166" x="577.8853" y="35.4209">Memory System Component Architecture</text></g><!--cluster MSP430--><g class="cluster" data-entity="MSP430" data-source-line="89" data-uid="ent0004" id="cluster_MSP430"><path d="M281.5,57.6094 L345.999,57.6094 A3.75,3.75 0 0 1 348.499,60.1094 L355.499,79.9063 L1400.5,79.9063 A2.5,2.5 0 0 1 1403,82.4063 L1403,1188.1094 A2.5,2.5 0 0 1 1400.5,1190.6094 L281.5,1190.6094 A2.5,2.5 0 0 1 279,1188.1094 L279,60.1094 A2.5,2.5 0 0 1 281.5,57.6094" fill="#FFFFFF" style="stroke:#000000;stroke-width:1;"/><line style="stroke:#000000;stroke-width:1;" x1="279" x2="355.499" y1="79.9063" y2="79.9063"/><text fill="#000000" font-family="Verdana" font-size="14" font-weight="bold" lengthAdjust="spacing" textLength="63.499" x="283" y="72.6045">MSP430</text></g><!--cluster Emulator--><g class="cluster" data-entity="Emulator" data-source-line="89" data-uid="ent0005" id="cluster_Emulator"><path d="M305.5,100.6094 L378.0791,100.6094 A3.75,3.75 0 0 1 380.5791,103.1094 L387.5791,122.9063 L1376.5,122.9063 A2.5,2.5 0 0 1 1379,125.4063 L1379,1164.1094 A2.5,2.5 0 0 1 1376.5,1166.6094 L305.5,1166.6094 A2.5,2.5 0 0 1 303,1164.1094 L303,103.1094 A2.5,2.5 0 0 1 305.5,100.6094" fill="#FFFFFF" style="stroke:#000000;stroke-width:1;"/><line style="stroke:#000000;stroke-width:1;" x1="303" x2="387.5791" y1="122.9063" y2="122.9063"/><text fill="#000000" font-family="Verdana" font-size="14" font-weight="bold" lengthAdjust="spacing" textLength="71.5791" x="307" y="115.6045">Emulator</text></g><!--cluster Memory--><g class="cluster" data-entity="Memory" data-source-line="88" data-uid="ent0002" id="cluster_Memory"><path d="M329.5,143.6094 L394.1631,143.6094 A3.75,3.75 0 0 1 396.6631,146.1094 L403.6631,165.9063 L1092.5,165.9063 A2.5,2.5 0 0 1 1095,168.4063 L1095,1140.1094 A2.5,2.5 0 0 1 1092.5,1142.6094 L329.5,1142.6094 A2.5,2.5 0 0 1 327,1140.1094 L327,146.1094 A2.5,2.5 0 0 1 329.5,143.6094" fill="#FFFFFF" style="stroke:#000000;stroke-width:1;"/><line style="stroke:#000000;stroke-width:1;" x1="327" x2="403.6631" y1="165.9063" y2="165.9063"/><text fill="#000000" font-family="Verdana" font-size="14" font-weight="bold" lengthAdjust="spacing" textLength="63.6631" x="331" y="158.6045">Memory</text></g><!--cluster Logging--><g class="cluster" data-entity="Logging" data-source-line="150" data-uid="ent0012" id="cluster_Logging"><path d="M1121.5,353.6094 L1185.8691,353.6094 A3.75,3.75 0 0 1 1188.3691,356.1094 L1195.3691,375.9063 L1352.5,375.9063 A2.5,2.5 0 0 1 1355,378.4063 L1355,495.1094 A2.5,2.5 0 0 1 1352.5,497.6094 L1121.5,497.6094 A2.5,2.5 0 0 1 1119,495.1094 L1119,356.1094 A2.5,2.5 0 0 1 1121.5,353.6094" fill="#FFFFFF" style="stroke:#000000;stroke-width:1;"/><line style="stroke:#000000;stroke-width:1;" x1="1119" x2="1195.3691" y1="375.9063" y2="375.9063"/><text fill="#000000" font-family="Verdana" font-size="14" font-weight="bold" lengthAdjust="spacing" textLength="63.3691" x="1123" y="368.6045">Logging</text></g><!--class IMemoryMap--><g class="entity" data-entity="IMemoryMap" data-source-line="89" data-uid="ent0003" id="entity_IMemoryMap"><rect fill="#FFFFFF" height="109.1875" rx="2.5" ry="2.5" style="stroke:#000000;stroke-width:1;" width="396.5586" x="342.5" y="380.6094"/><ellipse cx="491.7241" cy="394.6094" fill="#FFFFFF" rx="9" ry="9" style="stroke:#000000;stroke-width:1;"/><path d="M487.646,390.375 L487.646,388.2188 L495.0366,388.2188 L495.0366,390.375 L492.5679,390.375 L492.5679,398.4531 L495.0366,398.4531 L495.0366,400.6094 L487.646,400.6094 L487.646,398.4531 L490.1147,398.4531 L490.1147,390.375 L487.646,390.375 Z " fill="#000000"/><text fill="#000000" font-family="Verdana" font-size="14" font-style="italic" lengthAdjust="spacing" textLength="90.6104" x="509.2241" y="399.4561">IMemoryMap</text><line style="stroke:#000000;stroke-width:1;" x1="343.5" x2="738.0586" y1="408.6094" y2="408.6094"/><line style="stroke:#000000;stroke-width:1;" x1="343.5" x2="738.0586" y1="416.6094" y2="416.6094"/><ellipse cx="353.5" cy="430.2578" fill="#FFFFFF" rx="3" ry="3" style="stroke:#000000;stroke-width:1;"/><text fill="#000000" font-family="Verdana" font-size="14" lengthAdjust="spacing" textLength="280.8955" x="360.5" y="433.6045">GetRegion(address): MemoryRegionInfo</text><ellipse cx="353.5" cy="446.5547" fill="#FFFFFF" rx="3" ry="3" style="stroke:#000000;stroke-width:1;"/><text fill="#000000" font-family="Verdana" font-size="14" lengthAdjust="spacing" textLength="207.8604" x="360.5" y="449.9014">IsValidAddress(address): bool</text><ellipse cx="353.5" cy="462.8516" fill="#FFFFFF" rx="3" ry="3" style="stroke:#000000;stroke-width:1;"/><text fill="#000000" font-family="Verdana" font-size="14" lengthAdjust="spacing" textLength="259.9502" x="360.5" y="466.1982">IsAccessAllowed(address, type): bool</text><ellipse cx="353.5" cy="479.1484" fill="#FFFFFF" rx="3" ry="3" style="stroke:#000000;stroke-width:1;"/><text fill="#000000" font-family="Verdana" font-size="14" lengthAdjust="spacing" textLength="372.5586" x="360.5" y="482.4951">GetPermissions(address): MemoryAccessPermissions</text></g><!--class MemoryMap--><g class="entity" data-entity="MemoryMap" data-source-line="96" data-uid="ent0006" id="entity_MemoryMap"><rect fill="#FFFFFF" height="125.4844" rx="2.5" ry="2.5" style="stroke:#000000;stroke-width:1;" width="470.1953" x="343" y="549.6094"/><ellipse cx="531.1069" cy="563.6094" fill="#FFFFFF" rx="9" ry="9" style="stroke:#000000;stroke-width:1;"/><path d="M534.0757,569.25 Q533.4976,569.5469 532.8569,569.6875 Q532.2163,569.8438 531.5132,569.8438 Q529.0132,569.8438 527.6851,568.2031 Q526.3726,566.5469 526.3726,563.4219 Q526.3726,560.2969 527.6851,558.6406 Q529.0132,556.9844 531.5132,556.9844 Q532.2163,556.9844 532.8569,557.1406 Q533.5132,557.2969 534.0757,557.5938 L534.0757,560.3125 Q533.4507,559.7344 532.8569,559.4688 Q532.2632,559.1875 531.6382,559.1875 Q530.2944,559.1875 529.6069,560.2656 Q528.9194,561.3281 528.9194,563.4219 Q528.9194,565.5156 529.6069,566.5938 Q530.2944,567.6563 531.6382,567.6563 Q532.2632,567.6563 532.8569,567.3906 Q533.4507,567.1094 534.0757,566.5313 L534.0757,569.25 Z " fill="#000000"/><text fill="#000000" font-family="Verdana" font-size="14" lengthAdjust="spacing" textLength="86.4814" x="548.6069" y="568.4561">MemoryMap</text><line style="stroke:#000000;stroke-width:1;" x1="344" x2="812.1953" y1="577.6094" y2="577.6094"/><rect fill="none" height="6" style="stroke:#000000;stroke-width:1;" width="6" x="351" y="588.2578"/><text fill="#000000" font-family="Verdana" font-size="14" lengthAdjust="spacing" textLength="446.1953" x="361" y="594.6045">regionLookup: Dictionary&lt;MemoryRegion, MemoryRegionInfo&gt;</text><rect fill="none" height="6" style="stroke:#000000;stroke-width:1;" width="6" x="351" y="604.5547"/><text fill="#000000" font-family="Verdana" font-size="14" lengthAdjust="spacing" textLength="258.1865" x="361" y="610.9014">addressLookup: MemoryRegionInfo[]</text><line style="stroke:#000000;stroke-width:1;" x1="344" x2="812.1953" y1="618.2031" y2="618.2031"/><ellipse cx="354" cy="631.8516" fill="#FFFFFF" rx="3" ry="3" style="stroke:#000000;stroke-width:1;"/><text fill="#000000" font-family="Verdana" font-size="14" lengthAdjust="spacing" textLength="280.8955" x="361" y="635.1982">GetRegion(address): MemoryRegionInfo</text><ellipse cx="354" cy="648.1484" fill="#FFFFFF" rx="3" ry="3" style="stroke:#000000;stroke-width:1;"/><text fill="#000000" font-family="Verdana" font-size="14" lengthAdjust="spacing" textLength="207.8604" x="361" y="651.4951">IsValidAddress(address): bool</text><ellipse cx="354" cy="664.4453" fill="#FFFFFF" rx="3" ry="3" style="stroke:#000000;stroke-width:1;"/><text fill="#000000" font-family="Verdana" font-size="14" lengthAdjust="spacing" textLength="259.9502" x="361" y="667.792">IsAccessAllowed(address, type): bool</text></g><!--class MemoryAccessValidator--><g class="entity" data-entity="MemoryAccessValidator" data-source-line="104" data-uid="ent0007" id="entity_MemoryAccessValidator"><rect fill="#FFFFFF" height="141.7813" rx="2.5" ry="2.5" style="stroke:#000000;stroke-width:1;" width="263.9004" x="805" y="178.6094"/><ellipse cx="849.0396" cy="192.6094" fill="#FFFFFF" rx="9" ry="9" style="stroke:#000000;stroke-width:1;"/><path d="M852.0083,198.25 Q851.4302,198.5469 850.7896,198.6875 Q850.1489,198.8438 849.4458,198.8438 Q846.9458,198.8438 845.6177,197.2031 Q844.3052,195.5469 844.3052,192.4219 Q844.3052,189.2969 845.6177,187.6406 Q846.9458,185.9844 849.4458,185.9844 Q850.1489,185.9844 850.7896,186.1406 Q851.4458,186.2969 852.0083,186.5938 L852.0083,189.3125 Q851.3833,188.7344 850.7896,188.4688 Q850.1958,188.1875 849.5708,188.1875 Q848.2271,188.1875 847.5396,189.2656 Q846.8521,190.3281 846.8521,192.4219 Q846.8521,194.5156 847.5396,195.5938 Q848.2271,196.6563 849.5708,196.6563 Q850.1958,196.6563 850.7896,196.3906 Q851.3833,196.1094 852.0083,195.5313 L852.0083,198.25 Z " fill="#000000"/><text fill="#000000" font-family="Verdana" font-size="14" lengthAdjust="spacing" textLength="168.3213" x="866.5396" y="197.4561">MemoryAccessValidator</text><line style="stroke:#000000;stroke-width:1;" x1="806" x2="1067.9004" y1="206.6094" y2="206.6094"/><rect fill="none" height="6" style="stroke:#000000;stroke-width:1;" width="6" x="813" y="217.2578"/><text fill="#000000" font-family="Verdana" font-size="14" lengthAdjust="spacing" textLength="187.8174" x="823" y="223.6045">memoryMap: IMemoryMap</text><rect fill="none" height="6" style="stroke:#000000;stroke-width:1;" width="6" x="813" y="233.5547"/><text fill="#000000" font-family="Verdana" font-size="14" lengthAdjust="spacing" textLength="113.832" x="823" y="239.9014">logger: ILogger?</text><line style="stroke:#000000;stroke-width:1;" x1="806" x2="1067.9004" y1="247.2031" y2="247.2031"/><ellipse cx="816" cy="260.8516" fill="#FFFFFF" rx="3" ry="3" style="stroke:#000000;stroke-width:1;"/><text fill="#000000" font-family="Verdana" font-size="14" lengthAdjust="spacing" textLength="198.3379" x="823" y="264.1982">ValidateRead(address): void</text><ellipse cx="816" cy="277.1484" fill="#FFFFFF" rx="3" ry="3" style="stroke:#000000;stroke-width:1;"/><text fill="#000000" font-family="Verdana" font-size="14" lengthAdjust="spacing" textLength="200.1221" x="823" y="280.4951">ValidateWrite(address): void</text><ellipse cx="816" cy="293.4453" fill="#FFFFFF" rx="3" ry="3" style="stroke:#000000;stroke-width:1;"/><text fill="#000000" font-family="Verdana" font-size="14" lengthAdjust="spacing" textLength="218.9482" x="823" y="296.792">ValidateExecute(address): void</text><ellipse cx="816" cy="309.7422" fill="#FFFFFF" rx="3" ry="3" style="stroke:#000000;stroke-width:1;"/><text fill="#000000" font-family="Verdana" font-size="14" lengthAdjust="spacing" textLength="239.9004" x="823" y="313.0889">IsAccessValid(address, type): bool</text></g><!--class MemoryRegion--><g class="entity" data-entity="MemoryRegion" data-source-line="113" data-uid="ent0008" id="entity_MemoryRegion"><rect fill="#FFFFFF" height="174.375" rx="2.5" ry="2.5" style="stroke:#000000;stroke-width:1;" width="188.3193" x="389" y="952.6094"/><ellipse cx="426.6722" cy="966.6094" fill="#FFFFFF" rx="9" ry="9" style="stroke:#000000;stroke-width:1;"/><path d="M430.7816,972.6094 L423.0628,972.6094 L423.0628,960.2188 L430.7816,960.2188 L430.7816,962.375 L425.516,962.375 L425.516,965.0469 L430.2816,965.0469 L430.2816,967.2031 L425.516,967.2031 L425.516,970.4531 L430.7816,970.4531 L430.7816,972.6094 Z " fill="#000000"/><text fill="#000000" font-family="Verdana" font-size="14" lengthAdjust="spacing" textLength="105.4922" x="444.1549" y="971.4561">MemoryRegion</text><line style="stroke:#000000;stroke-width:1;" x1="390" x2="576.3193" y1="980.6094" y2="980.6094"/><text fill="#000000" font-family="Verdana" font-size="14" lengthAdjust="spacing" textLength="176.3193" x="395" y="997.6045">SpecialFunctionRegisters</text><text fill="#000000" font-family="Verdana" font-size="14" lengthAdjust="spacing" textLength="106.4834" x="395" y="1013.9014">Peripherals8Bit</text><text fill="#000000" font-family="Verdana" font-size="14" lengthAdjust="spacing" textLength="115.3906" x="395" y="1030.1982">Peripherals16Bit</text><text fill="#000000" font-family="Verdana" font-size="14" lengthAdjust="spacing" textLength="116.4297" x="395" y="1046.4951">BootstrapLoader</text><text fill="#000000" font-family="Verdana" font-size="14" lengthAdjust="spacing" textLength="138.2227" x="395" y="1062.792">InformationMemory</text><text fill="#000000" font-family="Verdana" font-size="14" lengthAdjust="spacing" textLength="31.9443" x="395" y="1079.0889">Ram</text><text fill="#000000" font-family="Verdana" font-size="14" lengthAdjust="spacing" textLength="36.6885" x="395" y="1095.3857">Flash</text><text fill="#000000" font-family="Verdana" font-size="14" lengthAdjust="spacing" textLength="146.084" x="395" y="1111.6826">InterruptVectorTable</text><line style="stroke:#000000;stroke-width:1;" x1="390" x2="576.3193" y1="1118.9844" y2="1118.9844"/></g><!--class MemoryAccessPermissions--><g class="entity" data-entity="MemoryAccessPermissions" data-source-line="124" data-uid="ent0009" id="entity_MemoryAccessPermissions"><rect fill="#FFFFFF" height="158.0781" rx="2.5" ry="2.5" style="stroke:#000000;stroke-width:1;" width="216.6582" x="635.5" y="960.6094"/><ellipse cx="648.5" cy="974.6094" fill="#FFFFFF" rx="9" ry="9" style="stroke:#000000;stroke-width:1;"/><path d="M652.6094,980.6094 L644.8906,980.6094 L644.8906,968.2188 L652.6094,968.2188 L652.6094,970.375 L647.3438,970.375 L647.3438,973.0469 L652.1094,973.0469 L652.1094,975.2031 L647.3438,975.2031 L647.3438,978.4531 L652.6094,978.4531 L652.6094,980.6094 Z " fill="#000000"/><text fill="#000000" font-family="Verdana" font-size="14" lengthAdjust="spacing" textLength="188.6582" x="660.5" y="979.4561">MemoryAccessPermissions</text><line style="stroke:#000000;stroke-width:1;" x1="636.5" x2="851.1582" y1="988.6094" y2="988.6094"/><text fill="#000000" font-family="Verdana" font-size="14" lengthAdjust="spacing" textLength="66.0625" x="641.5" y="1005.6045">None = 0</text><text fill="#000000" font-family="Verdana" font-size="14" lengthAdjust="spacing" textLength="65.3447" x="641.5" y="1021.9014">Read = 1</text><text fill="#000000" font-family="Verdana" font-size="14" lengthAdjust="spacing" textLength="67.1289" x="641.5" y="1038.1982">Write = 2</text><text fill="#000000" font-family="Verdana" font-size="14" lengthAdjust="spacing" textLength="85.9551" x="641.5" y="1054.4951">Execute = 4</text><text fill="#000000" font-family="Verdana" font-size="14" lengthAdjust="spacing" textLength="102.9355" x="641.5" y="1070.792">ReadWrite = 3</text><text fill="#000000" font-family="Verdana" font-size="14" lengthAdjust="spacing" textLength="121.7617" x="641.5" y="1087.0889">ReadExecute = 5</text><text fill="#000000" font-family="Verdana" font-size="14" lengthAdjust="spacing" textLength="46.8945" x="641.5" y="1103.3857">All = 7</text><line style="stroke:#000000;stroke-width:1;" x1="636.5" x2="851.1582" y1="1110.6875" y2="1110.6875"/></g><!--class MemoryRegionInfo--><g class="entity" data-entity="MemoryRegionInfo" data-source-line="134" data-uid="ent0010" id="entity_MemoryRegionInfo"><rect fill="#FFFFFF" height="158.0781" rx="2.5" ry="2.5" style="stroke:#000000;stroke-width:1;" width="305.374" x="425.5" y="734.6094"/><ellipse cx="508.4429" cy="748.6094" fill="#FFFFFF" rx="9" ry="9" style="stroke:#000000;stroke-width:1;"/><path d="M507.9272,749.1719 Q506.0679,748.4688 505.4116,747.7031 Q504.771,746.9219 504.771,745.6094 Q504.771,743.9219 505.8491,742.9531 Q506.9272,741.9844 508.8022,741.9844 Q509.6616,741.9844 510.5054,742.1875 Q511.3647,742.375 512.2085,742.7656 L512.2085,745.1563 Q511.4272,744.5938 510.5991,744.3125 Q509.7866,744.0156 508.9897,744.0156 Q508.1147,744.0156 507.6304,744.375 Q507.1616,744.7344 507.1616,745.3906 Q507.1616,745.9063 507.5054,746.25 Q507.8491,746.5781 508.9429,746.9844 L510.0054,747.3906 Q511.4897,747.9375 512.1929,748.8438 Q512.9116,749.75 512.9116,751.125 Q512.9116,753 511.8022,753.9219 Q510.6929,754.8438 508.4429,754.8438 Q507.521,754.8438 506.5991,754.625 Q505.6772,754.4063 504.8179,753.9844 L504.8179,751.4531 Q505.7866,752.1406 506.7085,752.4844 Q507.6304,752.8281 508.521,752.8281 Q509.4272,752.8281 509.9272,752.4219 Q510.4272,752 510.4272,751.2656 Q510.4272,750.7031 510.0835,750.2969 Q509.7554,749.875 509.1304,749.625 L507.9272,749.1719 Z " fill="#000000"/><text fill="#000000" font-family="Verdana" font-size="14" lengthAdjust="spacing" textLength="131.9883" x="525.9429" y="753.4561">MemoryRegionInfo</text><line style="stroke:#000000;stroke-width:1;" x1="426.5" x2="729.874" y1="762.6094" y2="762.6094"/><ellipse cx="436.5" cy="776.2578" fill="none" rx="3" ry="3" style="stroke:#000000;stroke-width:1;"/><text fill="#000000" font-family="Verdana" font-size="14" lengthAdjust="spacing" textLength="163.2148" x="443.5" y="779.6045">Region: MemoryRegion</text><ellipse cx="436.5" cy="792.5547" fill="none" rx="3" ry="3" style="stroke:#000000;stroke-width:1;"/><text fill="#000000" font-family="Verdana" font-size="14" lengthAdjust="spacing" textLength="144.5254" x="443.5" y="795.9014">StartAddress: ushort</text><ellipse cx="436.5" cy="808.8516" fill="none" rx="3" ry="3" style="stroke:#000000;stroke-width:1;"/><text fill="#000000" font-family="Verdana" font-size="14" lengthAdjust="spacing" textLength="136.9307" x="443.5" y="812.1982">EndAddress: ushort</text><ellipse cx="436.5" cy="825.1484" fill="none" rx="3" ry="3" style="stroke:#000000;stroke-width:1;"/><text fill="#000000" font-family="Verdana" font-size="14" lengthAdjust="spacing" textLength="281.374" x="443.5" y="828.4951">Permissions: MemoryAccessPermissions</text><ellipse cx="436.5" cy="841.4453" fill="none" rx="3" ry="3" style="stroke:#000000;stroke-width:1;"/><text fill="#000000" font-family="Verdana" font-size="14" lengthAdjust="spacing" textLength="129.0898" x="443.5" y="844.792">Description: string</text><ellipse cx="436.5" cy="857.7422" fill="none" rx="3" ry="3" style="stroke:#000000;stroke-width:1;"/><text fill="#000000" font-family="Verdana" font-size="14" lengthAdjust="spacing" textLength="56.1572" x="443.5" y="861.0889">Size: int</text><line style="stroke:#000000;stroke-width:1;" x1="426.5" x2="729.874" y1="868.3906" y2="868.3906"/><ellipse cx="436.5" cy="882.0391" fill="#FFFFFF" rx="3" ry="3" style="stroke:#000000;stroke-width:1;"/><text fill="#000000" font-family="Verdana" font-size="14" lengthAdjust="spacing" textLength="166.6465" x="443.5" y="885.3857">Contains(address): bool</text></g><!--class MemoryAccessException--><g class="entity" data-entity="MemoryAccessException" data-source-line="144" data-uid="ent0011" id="entity_MemoryAccessException"><rect fill="#FFFFFF" height="76.5938" rx="2.5" ry="2.5" style="stroke:#000000;stroke-width:1;" width="304.335" x="775" y="396.6094"/><ellipse cx="836.29" cy="410.6094" fill="#FFFFFF" rx="9" ry="9" style="stroke:#000000;stroke-width:1;"/><path d="M839.2588,416.25 Q838.6807,416.5469 838.04,416.6875 Q837.3994,416.8438 836.6963,416.8438 Q834.1963,416.8438 832.8682,415.2031 Q831.5557,413.5469 831.5557,410.4219 Q831.5557,407.2969 832.8682,405.6406 Q834.1963,403.9844 836.6963,403.9844 Q837.3994,403.9844 838.04,404.1406 Q838.6963,404.2969 839.2588,404.5938 L839.2588,407.3125 Q838.6338,406.7344 838.04,406.4688 Q837.4463,406.1875 836.8213,406.1875 Q835.4775,406.1875 834.79,407.2656 Q834.1025,408.3281 834.1025,410.4219 Q834.1025,412.5156 834.79,413.5938 Q835.4775,414.6563 836.8213,414.6563 Q837.4463,414.6563 838.04,414.3906 Q838.6338,414.1094 839.2588,413.5313 L839.2588,416.25 Z " fill="#000000"/><text fill="#000000" font-family="Verdana" font-size="14" lengthAdjust="spacing" textLength="174.2549" x="853.79" y="415.4561">MemoryAccessException</text><line style="stroke:#000000;stroke-width:1;" x1="776" x2="1078.335" y1="424.6094" y2="424.6094"/><ellipse cx="786" cy="438.2578" fill="none" rx="3" ry="3" style="stroke:#000000;stroke-width:1;"/><text fill="#000000" font-family="Verdana" font-size="14" lengthAdjust="spacing" textLength="110.3252" x="793" y="441.6045">Address: ushort</text><ellipse cx="786" cy="454.5547" fill="none" rx="3" ry="3" style="stroke:#000000;stroke-width:1;"/><text fill="#000000" font-family="Verdana" font-size="14" lengthAdjust="spacing" textLength="280.335" x="793" y="457.9014">AccessType: MemoryAccessPermissions</text><line style="stroke:#000000;stroke-width:1;" x1="776" x2="1078.335" y1="465.2031" y2="465.2031"/></g><!--class ILogger--><g class="entity" data-entity="ILogger" data-source-line="151" data-uid="ent0013" id="entity_ILogger"><rect fill="#FFFFFF" height="92.8906" rx="2.5" ry="2.5" style="stroke:#000000;stroke-width:1;" width="204.0791" x="1135" y="388.6094"/><ellipse cx="1206.9712" cy="402.6094" fill="#FFFFFF" rx="9" ry="9" style="stroke:#000000;stroke-width:1;"/><path d="M1202.8931,398.375 L1202.8931,396.2188 L1210.2837,396.2188 L1210.2837,398.375 L1207.8149,398.375 L1207.8149,406.4531 L1210.2837,406.4531 L1210.2837,408.6094 L1202.8931,408.6094 L1202.8931,406.4531 L1205.3618,406.4531 L1205.3618,398.375 L1202.8931,398.375 Z " fill="#000000"/><text fill="#000000" font-family="Verdana" font-size="14" font-style="italic" lengthAdjust="spacing" textLength="52.6367" x="1224.4712" y="407.4561">ILogger</text><line style="stroke:#000000;stroke-width:1;" x1="1136" x2="1338.0791" y1="416.6094" y2="416.6094"/><line style="stroke:#000000;stroke-width:1;" x1="1136" x2="1338.0791" y1="424.6094" y2="424.6094"/><ellipse cx="1146" cy="438.2578" fill="#FFFFFF" rx="3" ry="3" style="stroke:#000000;stroke-width:1;"/><text fill="#000000" font-family="Verdana" font-size="14" lengthAdjust="spacing" textLength="180.0791" x="1153" y="441.6045">Log(level, message): void</text><ellipse cx="1146" cy="454.5547" fill="#FFFFFF" rx="3" ry="3" style="stroke:#000000;stroke-width:1;"/><text fill="#000000" font-family="Verdana" font-size="14" lengthAdjust="spacing" textLength="158.6758" x="1153" y="457.9014">Debug(message): void</text><ellipse cx="1146" cy="470.8516" fill="#FFFFFF" rx="3" ry="3" style="stroke:#000000;stroke-width:1;"/><text fill="#000000" font-family="Verdana" font-size="14" lengthAdjust="spacing" textLength="171.3359" x="1153" y="474.1982">Warning(message): void</text></g><g class="entity" data-entity="GMN23" data-source-line="170" data-uid="ent0024" id="entity_GMN23"><path d="M11,415.1094 L11,455.375 A0,0 0 0 0 11,455.375 L181.03,455.375 L422.9,549.5594 L189.03,455.375 L263.3467,455.375 A0,0 0 0 0 263.3467,455.375 L263.3467,425.1094 L253.3467,415.1094 L11,415.1094 A0,0 0 0 0 11,415.1094" fill="#FFFFFF" style="stroke:#000000;stroke-width:1;"/><path d="M253.3467,415.1094 L253.3467,425.1094 L263.3467,425.1094 L253.3467,415.1094" fill="#FFFFFF" style="stroke:#000000;stroke-width:1;"/><text fill="#000000" font-family="Verdana" font-size="13" lengthAdjust="spacing" textLength="199.8242" x="17" y="432.1763">Uses fast address lookup table</text><text fill="#000000" font-family="Verdana" font-size="13" lengthAdjust="spacing" textLength="231.3467" x="17" y="447.3091">for O(1) address-to-region mapping</text></g><g class="entity" data-entity="GMN26" data-source-line="175" data-uid="ent0027" id="entity_GMN26"><path d="M1419.5,415.1094 L1419.5,455.375 L1668.7871,455.375 L1668.7871,425.1094 L1658.7871,415.1094 L1419.5,415.1094" fill="#FFFFFF" style="stroke:#000000;stroke-width:1;"/><path d="M1658.7871,415.1094 L1658.7871,425.1094 L1668.7871,425.1094 L1658.7871,415.1094" fill="#FFFFFF" style="stroke:#000000;stroke-width:1;"/><text fill="#000000" font-family="Verdana" font-size="13" lengthAdjust="spacing" textLength="212.1323" x="1425.5" y="432.1763">Provides validation with optional</text><text fill="#000000" font-family="Verdana" font-size="13" lengthAdjust="spacing" textLength="228.2871" x="1425.5" y="447.3091">logging for debugging and security</text></g><!--reverse link IMemoryMap to MemoryMap--><g class="link" data-entity-1="IMemoryMap" data-entity-2="MemoryMap" data-source-line="159" data-uid="lnk14" id="link_IMemoryMap_MemoryMap"><path codeLine="159" d="M556.1228,507.6502 C560.0928,526.4302 560.86,530.0394 564.95,549.3994" fill="none" id="IMemoryMap-backto-MemoryMap" style="stroke:#000000;stroke-width:1;stroke-dasharray:7.0,7.0;"/><polygon fill="none" points="552.4,490.0394,550.2526,508.8911,561.9931,506.4092,552.4,490.0394" style="stroke:#000000;stroke-width:1;"/></g><!--link MemoryAccessValidator to IMemoryMap--><g class="link" data-entity-1="MemoryAccessValidator" data-entity-2="IMemoryMap" data-source-line="160" data-uid="lnk15" id="link_MemoryAccessValidator_IMemoryMap"><path codeLine="160" d="M804.86,311.8394 C756.84,334.0894 708.4341,356.5271 661.9641,378.0571" fill="none" id="MemoryAccessValidator-to-IMemoryMap" style="stroke:#000000;stroke-width:1;"/><polygon fill="#000000" points="656.52,380.5794,666.3677,380.4253,661.0567,378.4775,663.0046,373.1665,656.52,380.5794" style="stroke:#000000;stroke-width:1;"/></g><!--link MemoryAccessValidator to ILogger--><g class="link" data-entity-1="MemoryAccessValidator" data-entity-2="ILogger" data-source-line="161" data-uid="lnk16" id="link_MemoryAccessValidator_ILogger"><path codeLine="161" d="M1054.04,320.6994 C1067.87,329.0594 1081.76,337.4994 1095,345.6094 C1117.55,359.4094 1136.9093,371.4037 1159.0793,385.2337" fill="none" id="MemoryAccessValidator-to-ILogger" style="stroke:#000000;stroke-width:1;"/><polygon fill="#000000" points="1164.17,388.4094,1158.6511,380.2521,1159.9278,385.763,1154.4168,387.0397,1164.17,388.4094" style="stroke:#000000;stroke-width:1;"/></g><!--link MemoryMap to MemoryRegionInfo--><g class="link" data-entity-1="MemoryMap" data-entity-2="MemoryRegionInfo" data-source-line="162" data-uid="lnk17" id="link_MemoryMap_MemoryRegionInfo"><path codeLine="162" d="M578,674.8694 C578,693.7494 578,708.7694 578,728.5794" fill="none" id="MemoryMap-to-MemoryRegionInfo" style="stroke:#000000;stroke-width:1;"/><polygon fill="#000000" points="578,734.5794,582,725.5794,578,729.5794,574,725.5794,578,734.5794" style="stroke:#000000;stroke-width:1;"/></g><!--link MemoryMap to MemoryRegion--><g class="link" data-entity-1="MemoryMap" data-entity-2="MemoryRegion" data-source-line="163" data-uid="lnk18" id="link_MemoryMap_MemoryRegion"><path codeLine="163" d="M459.73,674.8494 C438.88,691.3394 420.03,711.2194 408,734.6094 C372.69,803.2494 396.9816,883.8955 427.9716,946.8955" fill="none" id="MemoryMap-to-MemoryRegion" style="stroke:#000000;stroke-width:1;"/><polygon fill="#000000" points="430.62,952.2794,430.2367,942.438,428.413,947.7928,423.0582,945.9691,430.62,952.2794" style="stroke:#000000;stroke-width:1;"/></g><!--link MemoryMap to MemoryAccessPermissions--><g class="link" data-entity-1="MemoryMap" data-entity-2="MemoryAccessPermissions" data-source-line="164" data-uid="lnk19" id="link_MemoryMap_MemoryAccessPermissions"><path codeLine="164" d="M696.27,674.8494 C717.12,691.3394 735.97,711.2194 748,734.6094 C783.98,804.5394 777.8521,890.1571 765.5021,954.4371" fill="none" id="MemoryMap-to-MemoryAccessPermissions" style="stroke:#000000;stroke-width:1;"/><polygon fill="#000000" points="764.37,960.3294,769.9963,952.2457,765.3134,955.4192,762.1399,950.7363,764.37,960.3294" style="stroke:#000000;stroke-width:1;"/></g><!--link MemoryAccessValidator to MemoryAccessException--><g class="link" data-entity-1="MemoryAccessValidator" data-entity-2="MemoryAccessException" data-source-line="165" data-uid="lnk20" id="link_MemoryAccessValidator_MemoryAccessException"><path codeLine="165" d="M933.18,320.7694 C931.77,346.5694 930.5566,368.7883 929.3666,390.6183" fill="none" id="MemoryAccessValidator-to-MemoryAccessException" style="stroke:#000000;stroke-width:1;"/><polygon fill="#000000" points="929.04,396.6094,933.524,387.8404,929.3122,391.6168,925.5358,387.405,929.04,396.6094" style="stroke:#000000;stroke-width:1;"/></g><!--link MemoryRegionInfo to MemoryRegion--><g class="link" data-entity-1="MemoryRegionInfo" data-entity-2="MemoryRegion" data-source-line="166" data-uid="lnk21" id="link_MemoryRegionInfo_MemoryRegion"><path codeLine="166" d="M544.91,892.6394 C536.71,911.9594 530.2335,927.246 521.8835,946.926" fill="none" id="MemoryRegionInfo-to-MemoryRegion" style="stroke:#000000;stroke-width:1;"/><polygon fill="#000000" points="519.54,952.4494,526.7375,945.7266,521.4929,947.8465,519.373,942.6019,519.54,952.4494" style="stroke:#000000;stroke-width:1;"/></g><!--link MemoryRegionInfo to MemoryAccessPermissions--><g class="link" data-entity-1="MemoryRegionInfo" data-entity-2="MemoryAccessPermissions" data-source-line="167" data-uid="lnk22" id="link_MemoryRegionInfo_MemoryAccessPermissions"><path codeLine="167" d="M635.83,892.6394 C652.11,914.6094 666.2478,933.6887 682.5278,955.6587" fill="none" id="MemoryRegionInfo-to-MemoryAccessPermissions" style="stroke:#000000;stroke-width:1;"/><polygon fill="#000000" points="686.1,960.4794,683.9555,950.8668,683.1232,956.4621,677.5279,955.6298,686.1,960.4794" style="stroke:#000000;stroke-width:1;"/></g><!--link MemoryAccessValidator to GMN26--><g class="link" data-entity-1="MemoryAccessValidator" data-entity-2="GMN26" data-source-line="175" data-uid="lnk28" id="link_MemoryAccessValidator_GMN26"><path d="M1069.4,273.1594 C1152.63,289.1794 1261.56,313.5294 1355,345.6094 C1410.69,364.7294 1471.83,395.2294 1509.07,414.9694" fill="none" id="MemoryAccessValidator-GMN26" style="stroke:#000000;stroke-width:1;stroke-dasharray:7.0,7.0;"/></g><!--SRC=[pLLRJzim57xFh_1uMH6qWerTL36c0cL2WWrH1W_J7jpajB5mRCjs2jt6Vz-9dIOkISeUbuSeEUVpkN_7hsmA6H35AHEHPPO3kOHCwYMPB8s5Z9p8J4a1mfAHZbDc8RQvXYXIDBwdSo1RbvEhWxTxWt6MSsgb7lZZM-HtHF1XmeAUqHZ8kLTSKbMgYcVd2zXhc3CfUZH9D1YpFIm3yE9pCPCr-jpSKiwIaOS6HwPIyX0sYcDKZ3YN3v2iSBl4BXKqq1Z25UYC6OF-J2CERof0k9DFxkrUCQV6aBRi-jhbS27bVQw6v9J55d-fNXw6AUus4ZwgBPJHh4myH_xu-R-KigCW_hHpLKn7M9niLR5XC1krcilv73JgBjp7vpgcqXfS0qs2m1UI9KtGdSQPVH4rVeGutu1RbS7X_wa88F9ihVn1wXC5CQFyB1Tk80ezSasR2e3JnbGAcdBpyPZPDld- -r1nBAKrLbDr8Ma2kf8NFTSPBRpuM2hDDSsgxpDiM1gSmLXqhkmjSbtg6phbi26x1Z-2HB_YvY2Vo5xj5Lk6WlrAuDg3aZULf6m5oWxMZgsGRzUaDVfT9STPnVyFpsF6-kInRL0Yt4PUkawRMZknLDkIC4EIcrJgkWCxOv5qweBgR5uh3dqA9iO-MnSAHit4F0Y2_O9XiLPhqOaK5jTtAuatqdBy68Dp4zQWCmb_vWP7_gNL-BJXUYZOZ0crt0-Uvs4eAEbnM03V9HawGdiDOfx2D9_tkhHtL0jqrgPtKRx66UAE7IPboaJ17NNuPp2ebthKlitw_QDmTsq0-UIYsduXRMpdRdMhgbd_xWXQ-nuroD3XjnNHT1y9YLoqKX4v8-ix_Ri1GsRKM59EAU7kJYEssY-ugiYttlxs2j6tihn1IKQLAcW08Y65ZzBJL5ehizhPiyITrIij5on1vmilBimzC9iIwKf0FK-u7qiNGrBCbFkZwCxWWi7Liwnz_mK0]--></g></svg>